Coordinates
version=1
nRows=8
nColumns=63
inDegrees=yes

Units are S.I. units (second, meters, Newtons, ...)
If the header above contains a line with 'inDegrees', this indicates whether rotational values are in degrees (yes) or radians (no).

endheader
time	pelvis_tilt	pelvis_list	pelvis_rotation	pelvis_tx	pelvis_ty	pelvis_tz	hip_flexion_r	hip_adduction_r	hip_rotation_r	knee_angle_r	knee_angle_r_beta	ankle_angle_r	subtalar_angle_r	mtp_angle_r	hip_flexion_l	hip_adduction_l	hip_rotation_l	knee_angle_l	knee_angle_l_beta	ankle_angle_l	subtalar_angle_l	mtp_angle_l	L5_S1_Flex_Ext	L5_S1_Lat_Bending	L5_S1_axial_rotation	L4_L5_Flex_Ext	L4_L5_Lat_Bending	L4_L5_axial_rotation	L3_L4_Flex_Ext	L3_L4_Lat_Bending	L3_L4_axial_rotation	L2_L3_Flex_Ext	L2_L3_Lat_Bending	L2_L3_axial_rotation	L1_L2_Flex_Ext	L1_L2_Lat_Bending	L1_L2_axial_rotation	L1_T12_Flex_Ext	L1_T12_Lat_Bending	L1_T12_axial_rotation	Abs_r3	Abs_r2	Abs_r1	Abs_t1	Abs_t2	neck_flexion	neck_bending	neck_rotation	arm_flex_r	arm_add_r	arm_rot_r	elbow_flex_r	pro_sup_r	wrist_flex_r	wrist_dev_r	arm_flex_l	arm_add_l	arm_rot_l	elbow_flex_l	pro_sup_l	wrist_flex_l	wrist_dev_l
0.559322	-0.794084	-6.026429	91.777040	0.041638	0.857445	0.690047	4.847596	-3.307764	-1.463806	10.333315	0.180350	29.838823	4.879443	0.000000	2.795663	3.070607	3.876031	5.039441	0.087955	26.994382	-10.665384	0.000000	0.178220	-0.270375	1.642950	0.330972	-0.359599	1.745634	0.292798	-0.657389	1.745634	0.203688	-0.657389	1.437581	0.165495	-0.551348	1.334897	0.101835	-0.418811	1.232213	1.273007	-3.058534	9.137595	0.000000	0.000000	26.721807	-3.891228	-11.787314	4.456028	-8.149290	12.074617	87.112568	89.085704	-4.289719	4.352322	14.301469	-14.890598	36.221582	88.029790	57.684714	0.529107	12.050148
0.576271	-1.013544	-5.761330	91.034233	0.042860	0.858625	0.689029	4.535599	-3.483023	-1.083741	10.241199	0.178743	29.757471	5.399459	0.000000	2.279822	3.247548	3.208143	4.835517	0.084396	26.623889	-10.672407	0.000000	0.163923	-0.302176	1.792840	0.304421	-0.401894	1.904893	0.269309	-0.734711	1.904893	0.187347	-0.734711	1.568735	0.152219	-0.616197	1.456683	0.093665	-0.468071	1.344630	1.170884	-3.418276	9.971238	0.000000	0.000000	26.393019	-3.691417	-12.105859	4.312617	-8.126856	7.798904	93.939216	89.389294	-6.435112	4.839292	13.862562	-15.527093	32.991814	94.733744	57.510992	-0.871528	12.367060
0.593220	-1.205707	-5.469529	90.223666	0.044126	0.859984	0.688191	4.230631	-3.625400	-0.522692	10.153670	0.177215	29.648986	5.799825	0.000000	1.751698	3.402447	2.381377	4.640025	0.080984	26.264548	-10.581848	0.000000	0.148129	-0.328331	1.931217	0.275091	-0.436680	2.051918	0.243362	-0.798304	2.051918	0.169297	-0.798304	1.689815	0.137553	-0.669533	1.569114	0.084641	-0.508585	1.448413	1.058072	-3.714147	10.740850	0.000000	0.000000	25.979234	-3.410874	-12.209916	4.686262	-8.061594	3.803894	100.560510	89.118466	-8.406165	5.424509	13.644940	-16.063777	29.800455	101.233731	57.654046	-2.485966	12.338580
0.610169	-1.360270	-5.164556	89.407009	0.045357	0.861483	0.687553	3.937469	-3.727120	0.207603	10.061847	0.175612	29.500540	6.001203	0.000000	1.233876	3.532350	1.517077	4.454839	0.077752	25.898866	-10.493665	0.000000	0.133330	-0.347783	2.044693	0.247606	-0.462551	2.172487	0.219047	-0.845599	2.172487	0.152382	-0.845599	1.789107	0.123810	-0.709198	1.661313	0.076185	-0.538715	1.533520	0.952360	-3.934187	11.371971	0.000000	0.000000	25.465932	-3.066541	-12.098088	5.617091	-7.953393	0.200513	106.758156	88.380163	-10.039352	6.182225	13.645319	-16.477419	26.640472	107.335542	58.410840	-4.185796	12.076276
0.627119	-1.471582	-4.844709	88.602582	0.046509	0.863084	0.687130	3.653955	-3.787153	1.074078	9.969526	0.174001	29.320988	6.022932	0.000000	0.726089	3.630836	0.597800	4.280439	0.074708	25.557678	-10.347334	0.000000	0.118619	-0.360218	2.136378	0.220288	-0.479090	2.269902	0.194880	-0.875833	2.269902	0.135570	-0.875833	1.869331	0.110150	-0.734556	1.735808	0.067779	-0.557977	1.602284	0.847286	-4.074855	11.881896	0.000000	0.000000	24.857268	-2.717906	-11.878293	7.107868	-7.833392	-2.926400	112.369294	87.139576	-11.303843	7.130700	13.932265	-16.750780	23.705119	112.852704	59.677273	-5.961558	11.561444
0.644068	-1.529687	-4.516331	87.854728	0.047537	0.864742	0.686901	3.376497	-3.797057	2.019509	9.873822	0.172331	29.101755	5.874648	0.000000	0.235730	3.683866	-0.325243	4.120632	0.071919	25.247114	-10.143275	0.000000	0.104398	-0.365121	2.199800	0.193878	-0.485611	2.337288	0.171516	-0.887756	2.337288	0.119317	-0.887756	1.924825	0.096944	-0.744556	1.787338	0.059653	-0.565573	1.649850	0.745705	-4.130326	12.234628	0.000000	0.000000	24.156532	-2.397978	-11.586212	9.134218	-7.711005	-5.552294	117.248651	85.723937	-12.166242	8.249636	14.502595	-16.872306	21.045187	117.667241	61.447675	-7.809712	10.868584
0.661017	-1.539382	-4.186256	87.184774	0.048412	0.866403	0.686840	3.105517	-3.765270	2.985460	9.774246	0.170593	28.846844	5.595047	0.000000	-0.231153	3.695417	-1.233608	3.975108	0.069379	24.985585	-9.858925	0.000000	0.090763	-0.364181	2.235408	0.168556	-0.484361	2.375121	0.149115	-0.885470	2.375121	0.103733	-0.885470	1.955982	0.084283	-0.742638	1.816269	0.051862	-0.564117	1.676556	0.648312	-4.119690	12.432668	0.000000	0.000000	23.384319	-2.118943	-11.310237	11.627693	-7.585930	-7.711149	121.305165	84.397281	-12.651174	9.479499	15.359931	-16.839867	18.733142	121.686081	63.635428	-9.777396	10.021359
0.677966	-1.505435	-3.866858	86.617865	0.049120	0.868012	0.686879	2.840171	-3.695280	3.946077	9.663438	0.168659	28.549779	5.175543	0.000000	-0.665682	3.668745	-2.041488	3.844426	0.067098	24.763456	-9.560847	0.000000	0.079174	-0.358623	2.241528	0.147035	-0.476968	2.381624	0.130076	-0.871955	2.381624	0.090488	-0.871955	1.961337	0.073521	-0.731303	1.821242	0.045240	-0.555506	1.681146	0.565535	-4.056811	12.466707	0.000000	0.000000	22.574676	-1.869390	-11.049548	14.480530	-7.447681	-9.441945	124.499606	83.254802	-12.890102	10.747664	16.450163	-16.653774	16.753022	124.894765	66.150774	-11.758542	9.152022
